<?xml version="1.0" encoding="UTF-8"?>
<svg viewBox="0 0 128 128" xmlns="http://www.w3.org/2000/svg">
 <defs>
  <radialGradient id="c" cx="303.39" cy="505.35" r="204.47" gradientTransform="matrix(1 0 0 .24256 0 382.77)" gradientUnits="userSpaceOnUse">
   <stop offset="0"/>
   <stop stop-opacity="0" offset="1"/>
  </radialGradient>
  <radialGradient id="d" cx="310.32" cy="516.31" r="225.72" gradientTransform="matrix(1.7143 -.97268 .54593 .70725 -482.42 431.9)" gradientUnits="userSpaceOnUse">
   <stop stop-opacity=".323" offset="0"/>
   <stop stop-color="#fff" stop-opacity="0" offset="1"/>
  </radialGradient>
 </defs>
 <g transform="translate(0 -924.36)">
  <g transform="translate(-1.6239 2.3931)">
   <path d="m78.966 1015c20.426 14.996 31.695 13.924 34.043 9.2116 2.3478-4.7129-8.4522-4.9272-8.2174-11.568 0.23479-6.6409 15.965-10.497 15.965-10.497" fill="none" stroke="#9c0f0f" stroke-width="4.198"/>
   <path transform="matrix(.27197 0 0 .13604 -17.317 959.07)" d="m102.02 501.77c8.4719-25.934 105.5-45.356 216.72-43.381 111.22 1.9755 194.51 24.601 186.04 50.535-8.4719 25.934-105.5 45.356-216.72 43.381-110.95-1.9708-194.17-24.498-186.09-50.377" fill="url(#c)" opacity=".375"/>
   <path transform="matrix(.19534 0 0 .22784 -4.94 913.89)" d="m106.37 289.25c9.4684-105.42 117.91-184.37 242.21-176.34 124.3 8.0301 217.39 99.998 207.92 205.42-9.4684 105.42-117.91 184.37-242.21 176.34-124-8.011-217-99.58-207.97-204.77" fill="url(#d)"/>
   <path transform="matrix(.19534 0 0 .22784 -4.94 913.89)" d="m106.37 289.25c9.4684-105.42 117.91-184.37 242.21-176.34 124.3 8.0301 217.39 99.998 207.92 205.42-9.4684 105.42-117.91 184.37-242.21 176.34-124-8.011-217-99.58-207.97-204.77" fill="#bf0303" stroke="#9c0f0f" stroke-linecap="round" stroke-width="16.789"/>
   <path d="m23.516 966.48c-12.686-4.2382-18.793-24.622-18.793-24.622s13.625 12.109 22.082 12.916c8.4571 0.80726-3.054 11.705-3.2889 11.705z" fill="#323232" fill-rule="evenodd" stroke="#323232" stroke-width="1.035"/>
   <path d="m98.532 965.26c12.686-4.2382 18.793-24.622 18.793-24.622s-13.625 12.109-22.082 12.916c-8.4571 0.80728 3.054 11.705 3.2889 11.705z" fill="#323232" fill-rule="evenodd" stroke="#323232" stroke-width="1.035"/>
   <path d="m109.84 1002.2c17.326-6.2915 16.785-4.0064 16.785-4.0064l-11.078 12.243s0.27709-2.9561-1.4688-5.3829c-1.7459-2.4267-4.4878-2.8967-4.2386-2.854z" fill="#bf0303" fill-rule="evenodd" stroke="#9c0f0f" stroke-width=".84"/>
   <path d="m41.604 962.38c-2.9539 2.0346-5.0372 6.9985-5.0372 12.817 0 7.6263 3.5765 13.815 8.0046 13.815s8.0296-6.1886 8.0296-13.815c0-0.40983-0.0295-0.8211-0.0499-1.2219l-10.947-11.596z" fill="#323232"/>
   <path d="m76.59 959.96-12.418 11.745c0.0623 7.5341 3.6402 13.615 8.0296 13.615 4.4282 0 8.0296-6.1886 8.0296-13.815 0-4.8371-1.4511-9.0849-3.6407-11.546z" fill="#323232"/>
   <path d="m89.459 999.93c-23.615 9.5079-26.729 17.274-28.145 17.012-8.8168-1.6346-6.8413 3.776-33.406-17.155-4.2632-3.3591 16.857 6.2099 31.986 6.2099s35.855-8.5994 29.565-6.0669z" fill="#ddd" fill-rule="evenodd" stroke="#323232" stroke-width="1.379"/>
   <path transform="matrix(.75502 .24198 -.25336 1.1838 26.265 895.27)" d="m84.794 53.834c0 2.2479-2.0753 4.0701-4.6354 4.0701s-4.6354-1.8222-4.6354-4.0701 2.0753-4.0701 4.6354-4.0701 4.6354 1.8222 4.6354 4.0701z" fill="#ddd"/>
   <path transform="matrix(.75502 .24198 -.25336 1.1838 -1.9996 899.11)" d="m84.794 53.834c0 2.2479-2.0753 4.0701-4.6354 4.0701s-4.6354-1.8222-4.6354-4.0701 2.0753-4.0701 4.6354-4.0701 4.6354 1.8222 4.6354 4.0701z" fill="#ddd"/>
  </g>
 </g>
</svg>
